# xmcd CD database file
#
# Track frame offsets:
#	150
#	492
#	15467
#	17877
#	34887
#	36354
#	49601
#	51698
#	67465
#	82674
#	99166
#
# Disc length: 1463 seconds
#
# Revision: 0
# Processed by: cddbd v1.5.2PL0 Copyright (c) Steve Scherf et al.
# Submitted via: CDex 1.81
#
DISCID=8605b50b
DTITLE=The Nashville Tribute Band - My Call To Serve 2014
DYEAR=1900
DGENRE=Country
TTITLE0=D&C 4:3
TTITLE1=My Call to Serve
TTITLE2=October 2012
TTITLE3=Daughters of Promise
TTITLE4=Papers
TTITLE5=I'm Gonna Go
TTITLE6=Alma 56:45-48
TTITLE7=M.O.M. (Mothers of Missionaries)
TTITLE8=Can't Take Her With You
TTITLE9=I Testify
TTITLE10=We'll Bring the World His Truth
EXTD=
EXTT0=
EXTT1=
EXTT2=
EXTT3=
EXTT4=
EXTT5=
EXTT6=
EXTT7=
EXTT8=
EXTT9=
EXTT10=
PLAYORDER=
